# xmcd
#
# Track frame offsets: 
#        150
#        41825
#        79528
#        111384
#        153690
#        188464
#        223989
#        253921
#
# Disc length: 3986 seconds
#
# Revision: 1
# Processed by: cddbd v1.5.2PL0 Copyright (c) Steve Scherf et al.
# Submitted via: ExactAudioCopy v0.99pb5
#
DISCID=710f9008
DTITLE=Nicolas Folmer meets Bob Mintzer - Off the beaten tracks vol.1
DYEAR=2009
DGENRE=Jazz
TTITLE0=Off the beaten tracks
TTITLE1=Fun blues
TTITLE2=Soothing spirit
TTITLE3=Bop boy
TTITLE4=Absynthe Minded
TTITLE5=Let's Rendez-Vous!
TTITLE6=Le chateau des Guillaumes
TTITLE7=Black Inside
EXTD=YEAR: 2009
EXTT0=
EXTT1=
EXTT2=
EXTT3=
EXTT4=
EXTT5=
EXTT6=
EXTT7=
PLAYORDER=
